HIERARCHY
ROOT Hips
{
	OFFSET 0.00000 0.00000 0.00000
	CHANNELS 6 Xposition Yposition Zposition Zrotation Yrotation Xrotation 
	JOINT LHipJoint
	{
		OFFSET 0 0 0
		CHANNELS 3 Zrotation Yrotation Xrotation
		JOINT LeftUpLeg
		{
			OFFSET 3.13874 -1.57224 1.49786
			CHANNELS 3 Zrotation Yrotation Xrotation
			JOINT LeftLeg
			{
				OFFSET 2.10955 -5.79594 0.00000
				CHANNELS 3 Zrotation Yrotation Xrotation
				JOINT LeftFoot
				{
					OFFSET 2.41843 -6.64458 0.00000
					CHANNELS 3 Zrotation Yrotation Xrotation
					JOINT LeftToeBase
					{
						OFFSET 0.04713 -0.12948 1.66229
						CHANNELS 3 Zrotation Yrotation Xrotation
						End Site
						{
							OFFSET 0.00000 -0.00000 0.85167
						}
					}
				}
			}
		}
	}
	JOINT RHipJoint
	{
		OFFSET 0 0 0
		CHANNELS 3 Zrotation Yrotation Xrotation
		JOINT RightUpLeg
		{
			OFFSET -3.13988 -1.57224 1.49786
			CHANNELS 3 Zrotation Yrotation Xrotation
			JOINT RightLeg
			{
				OFFSET -2.15006 -5.90725 0.00000
				CHANNELS 3 Zrotation Yrotation Xrotation
				JOINT RightFoot
				{
					OFFSET -2.34496 -6.44273 0.00000
					CHANNELS 3 Zrotation Yrotation Xrotation
					JOINT RightToeBase
					{
						OFFSET -0.08699 -0.23900 1.55223
						CHANNELS 3 Zrotation Yrotation Xrotation
						End Site
						{
							OFFSET -0.00000 -0.00000 0.80281
						}
					}
				}
			}
		}
	}
	JOINT LowerBack
	{
		OFFSET 0 0 0
		CHANNELS 3 Zrotation Yrotation Xrotation
		JOINT Spine
		{
			OFFSET 0.01292 1.96517 -0.16495
			CHANNELS 3 Zrotation Yrotation Xrotation
			JOINT Spine1
			{
				OFFSET 0.02122 1.88666 0.19706
				CHANNELS 3 Zrotation Yrotation Xrotation
				JOINT Neck
				{
					OFFSET 0 0 0
					CHANNELS 3 Zrotation Yrotation Xrotation
					JOINT Neck1
					{
						OFFSET -0.01683 1.81591 0.07903
						CHANNELS 3 Zrotation Yrotation Xrotation
						JOINT Head
						{
							OFFSET 0.00815 1.74013 -0.47700
							CHANNELS 3 Zrotation Yrotation Xrotation
							End Site
							{
								OFFSET -0.00204 1.83225 -0.16933
							}
						}
					}
				}
				JOINT LeftShoulder
				{
					OFFSET 0 0 0
					CHANNELS 3 Zrotation Yrotation Xrotation
					JOINT LeftArm
					{
						OFFSET 3.38482 1.41533 0.19802
						CHANNELS 3 Zrotation Yrotation Xrotation
						JOINT LeftForeArm
						{
							OFFSET 4.32712 -0.00000 0.00000
							CHANNELS 3 Zrotation Yrotation Xrotation
							JOINT LeftHand
							{
								OFFSET 3.28587 -0.00000 -0.00000
								CHANNELS 3 Zrotation Yrotation Xrotation
								JOINT LeftFingerBase
								{
									OFFSET 0 0 0
									CHANNELS 3 Zrotation Yrotation Xrotation
									JOINT LeftHandIndex1
									{
										OFFSET 0.43316 -0.00000 -0.00000
										CHANNELS 3 Zrotation Yrotation Xrotation
										End Site
										{
											OFFSET 0.34922 -0.00000 -0.00000
										}
									}
								}
								JOINT LThumb
								{
									OFFSET 0 0 0
									CHANNELS 3 Zrotation Yrotation Xrotation
									End Site
									{
										OFFSET 0.35456 -0.00000 0.35456
									}
								}
							}
						}
					}
				}
				JOINT RightShoulder
				{
					OFFSET 0 0 0
					CHANNELS 3 Zrotation Yrotation Xrotation
					JOINT RightArm
					{
						OFFSET -3.09725 1.62858 -0.14144
						CHANNELS 3 Zrotation Yrotation Xrotation
						JOINT RightForeArm
						{
							OFFSET -4.29104 -0.00000 0.00000
							CHANNELS 3 Zrotation Yrotation Xrotation
							JOINT RightHand
							{
								OFFSET -3.22720 -0.00000 -0.00000
								CHANNELS 3 Zrotation Yrotation Xrotation
								JOINT RightFingerBase
								{
									OFFSET 0 0 0
									CHANNELS 3 Zrotation Yrotation Xrotation
									JOINT RightHandIndex1
									{
										OFFSET -0.54362 -0.00000 -0.00000
										CHANNELS 3 Zrotation Yrotation Xrotation
										End Site
										{
											OFFSET -0.43828 -0.00000 -0.00000
										}
									}
								}
								JOINT RThumb
								{
									OFFSET 0 0 0
									CHANNELS 3 Zrotation Yrotation Xrotation
									End Site
									{
										OFFSET -0.44497 -0.00000 0.44497
									}
								}
							}
						}
					}
				}
			}
		}
	}
}
MOTION
Frames: 9
Frame Time: .0083333
16.5052 16.5737 -3.5241 -89.0889 78.0846 -83.6504 0.0000 0.0000 0.0000 -6.8769 -33.3182 -21.9023 0.2053 2.9175 8.0492 3.0841 2.4180 -34.1437 10.0185 -17.4202 -59.5501 0.0000 0.0000 0.0000 41.9690 -12.0897 0.0726 -2.7225 -10.2317 29.7303 1.1918 -22.8229 5.3016 -0.0157 -0.8081 2.2211 9.1265 2.0335 6.3628 5.3904 5.1895 -9.8044 -0.0778 2.0880 -14.2849 -2.7758 -3.5683 -13.1854 -7.0544 0.5996 41.0060 -2.3784 -0.3847 17.3283 0.0000 -0.0000 0.0000 -75.4287 47.1187 39.7717 77.3986 -59.3914 -49.1092 -0.0000 -0.0000 6.4161 41.7341 29.7081 23.8491 -7.1250 0.0000 -0.0000 15.2957 66.7861 8.1077 0.0000 -0.0000 0.0000 62.5793 -22.2312 46.1017 -70.4734 58.5091 -43.1741 0.0000 -0.0000 -12.5382 -32.6112 -9.9250 6.2929 7.1250 -0.0000 -0.0000 -5.0258 -41.6621 -0.4150
17.2074 16.5158 -3.4775 -83.8185 78.0281 -78.9765 0.0000 0.0000 0.0000 -8.3556 -32.1880 -19.5485 0.1998 2.8786 7.9409 2.6062 1.8950 -31.2588 10.5973 -17.7323 -61.4666 0.0000 0.0000 0.0000 41.0673 -12.4279 -1.2695 -3.8223 -11.9202 35.4502 1.6576 -25.1144 3.4968 -0.0279 -1.0776 2.9623 8.5189 2.1260 6.1410 5.4952 5.1771 -9.6206 0.3803 2.1620 -13.9656 -3.1041 -3.2761 -13.5897 -6.0247 0.8282 41.6216 -1.8351 -0.2031 17.7917 0.0000 -0.0000 0.0000 -74.3739 48.1371 39.8173 78.9054 -59.5297 -50.4070 -0.0000 -0.0000 4.9818 41.3345 29.8345 23.6338 -7.1250 0.0000 -0.0000 14.6547 66.8062 7.7684 0.0000 -0.0000 0.0000 62.0012 -22.7061 47.1379 -71.1916 58.6202 -43.7869 0.0000 -0.0000 -13.3044 -32.2845 -10.1212 6.3353 7.1250 -0.0000 -0.0000 -4.7283 -41.8557 -0.3677
17.9145 16.3929 -3.4343 -78.6302 78.3234 -74.5281 0.0000 0.0000 0.0000 -10.8125 -30.3279 -16.7802 0.2349 3.1191 8.6104 2.0132 2.2622 -27.7048 10.6940 -17.7821 -61.7839 0.0000 0.0000 0.0000 39.6603 -12.8553 -2.6608 -5.0871 -13.4812 41.1977 2.2913 -25.9879 -5.3875 -0.0033 -0.3706 1.0182 7.4017 2.1355 5.7982 5.6318 4.9589 -9.3257 1.1917 2.1915 -13.4806 -2.5533 -3.0840 -13.5317 -6.0778 0.9609 41.7272 -1.9378 -0.0676 17.8317 -0.0000 -0.0000 0.0000 -73.0815 47.9369 41.0281 77.2163 -59.3734 -48.9523 -0.0000 -0.0000 3.3533 42.3939 29.0263 23.8916 -7.1250 0.0000 -0.0000 16.3312 66.2127 8.4544 -0.0000 -0.0000 0.0000 61.2247 -23.1394 48.1335 -70.9569 58.5844 -43.5866 0.0000 -0.0000 -13.7963 -31.7456 -10.2132 6.2606 7.1250 -0.0000 -0.0000 -4.2392 -41.9038 -0.3244
18.6198 16.2076 -3.3983 -73.8725 78.6227 -70.6839 0.0000 0.0000 0.0000 -13.3796 -27.9286 -14.0604 0.2986 3.5137 9.7125 1.1007 6.8793 -23.4286 10.3924 -17.6247 -60.7919 0.0000 0.0000 0.0000 38.1733 -13.1850 -4.0097 -6.4310 -14.8334 46.6878 2.4218 -26.4809 -14.0829 -0.0009 0.1940 -0.5330 6.8364 2.1396 6.3225 5.3873 4.9302 -9.5104 1.2181 2.1922 -14.0422 -1.1353 -3.0983 -12.0349 -6.6915 0.5844 41.0888 -2.4855 -0.0603 17.0255 0.0000 0.0000 0.0000 -70.7372 49.3407 43.0067 79.7680 -59.6007 -51.1507 -0.0000 -0.0000 3.4155 42.6006 28.7898 23.8867 -7.1250 0.0000 -0.0000 16.6456 66.0055 8.5419 0.0000 0.0000 0.0000 61.2078 -24.5357 48.7252 -69.6677 58.3788 -42.4876 0.0000 -0.0000 -13.9589 -31.0288 -10.4807 6.2446 7.1250 -0.0000 -0.0000 -3.5825 -42.1346 -0.2536
19.3038 15.9693 -3.3529 -68.6299 79.1413 -66.7664 0.0000 0.0000 0.0000 -15.9796 -25.3000 -12.8443 0.4730 4.4110 12.2358 0.0456 12.9948 -19.0272 7.4646 -15.7109 -50.6102 0.0000 0.0000 0.0000 36.5917 -12.9785 -5.0139 -7.6980 -15.8926 51.4675 1.7024 -24.7104 -20.9557 -0.0185 -0.8785 2.4146 6.0441 2.0878 7.5518 5.0581 4.8217 -9.6038 1.2630 2.1574 -14.9562 -1.1857 -3.0224 -11.0809 -5.7264 0.2992 41.1272 -2.0661 -0.0338 16.7760 0.0000 0.0000 0.0000 -68.7870 48.9865 44.9309 77.9064 -59.4401 -49.5463 -0.0000 -0.0000 5.2191 41.2025 28.1137 22.4192 -7.1250 0.0000 -0.0000 14.4628 64.8050 6.9989 0.0000 0.0000 0.0000 61.7556 -25.5542 48.7719 -66.5273 57.8122 -39.8213 0.0000 -0.0000 -13.7818 -30.3561 -10.8866 6.3120 7.1250 -0.0000 -0.0000 -2.9549 -42.5259 -0.1806
19.9391 15.7004 -3.2937 -62.3652 79.8993 -62.0044 0.0000 0.0000 0.0000 -18.7210 -22.4665 -12.8724 1.0040 6.3761 17.8796 0.3914 7.8880 -17.2463 7.1848 -15.4855 -49.5698 0.0000 0.0000 0.0000 35.1923 -11.6654 -6.2568 -8.8634 -16.7190 55.6166 0.5988 -20.8420 -24.5673 -0.0796 -1.8200 5.0085 4.8225 2.0422 9.4718 4.6438 4.6497 -9.6082 1.4428 2.1244 -16.2424 -0.4967 -2.9493 -10.6328 -5.9003 0.3571 41.5756 -2.2641 0.1050 16.9022 0.0000 0.0000 0.0000 -67.4847 47.7936 46.5962 74.6203 -59.0871 -46.7216 -0.0000 -0.0000 7.2367 40.0929 27.7046 21.3751 -7.1250 0.0000 -0.0000 12.8392 64.0057 5.9615 0.0000 0.0000 0.0000 63.0628 -26.2877 48.0408 -61.7606 56.7611 -35.8099 0.0000 -0.0000 -13.2058 -29.7321 -11.4502 6.4685 7.1250 -0.0000 -0.0000 -2.3548 -43.0972 -0.1106
20.5630 15.4606 -3.2420 -57.7698 79.8135 -59.1801 0.0000 0.0000 0.0000 -20.2386 -20.2965 -12.6357 1.7810 8.3941 23.9176 0.7010 3.8685 -17.6870 7.1339 -15.4436 -49.3789 0.0000 0.0000 0.0000 34.8690 -9.5516 -7.5821 -9.8771 -17.3401 59.0766 0.4777 -20.1014 -24.4350 -0.0139 0.7620 -2.0943 4.9789 1.8493 11.5554 3.9918 4.4428 -9.5414 0.5940 1.8951 -17.4481 0.8787 -2.8453 -9.9676 -5.8771 0.1757 41.9972 -2.5335 0.2819 16.9317 0.0000 -0.0000 0.0000 -65.5309 46.3352 48.3161 71.0796 -58.6032 -43.6913 -0.0000 -0.0000 9.2999 39.2710 28.1261 21.0791 -7.1250 0.0000 -0.0000 11.6294 64.2438 5.4564 0.0000 -0.0000 0.0000 65.5718 -27.6943 46.6748 -56.8987 55.4252 -31.7737 0.0000 -0.0000 -12.0314 -29.1187 -12.3259 6.7811 7.1250 -0.0000 -0.0000 -1.7288 -44.0157 -0.0420
21.2114 15.3149 -3.1949 -29.3056 84.5514 -30.5540 0.0000 0.0000 0.0000 -28.1964 -19.5860 -13.1998 2.6324 10.0748 29.2194 0.9388 -0.2564 -18.2331 7.3650 -15.6317 -50.2417 0.0000 0.0000 0.0000 28.0628 -7.5039 -11.3372 -10.6355 -17.7521 61.5922 0.0512 -16.0231 -22.2228 -0.0315 1.1460 -3.1507 -0.9464 1.8962 10.7532 2.1713 2.9827 -9.5269 2.2304 1.7614 -17.0661 1.2641 -2.7107 -11.2001 -5.4987 0.1210 42.6417 -2.4921 0.3605 17.6180 -0.0000 0.0000 0.0000 -64.6681 43.8184 49.3921 68.3117 -58.1458 -41.3343 -0.0000 -0.0000 12.6725 37.4302 28.0875 19.8172 -7.1250 0.0000 -0.0000 9.0447 63.6635 4.1101 -0.0000 0.0000 0.0000 67.1333 -29.1764 44.4629 -52.9395 54.1144 -28.5391 0.0000 -0.0000 -10.7401 -28.8558 -12.9792 7.0550 7.1250 -0.0000 -0.0000 -1.4294 -44.7187 -0.0099
21.7377 15.2507 -3.1195 -19.7447 85.4340 -19.7363 0.0000 0.0000 0.0000 -29.1476 -18.5014 -14.4568 3.0684 10.8050 31.6251 0.9675 -2.5711 -17.9031 7.6890 -15.8857 -51.4347 0.0000 0.0000 0.0000 27.2400 -3.7696 -17.2448 -11.5710 -18.2034 64.6225 0.0227 -14.2393 -19.9725 -0.4176 4.1480 -11.4935 -2.1984 1.6570 10.3119 1.6379 2.3603 -9.7925 2.4901 1.5900 -17.1049 1.5785 -2.6136 -12.3643 -5.0160 -0.1249 42.7757 -2.4019 0.3407 17.9901 0.0000 0.0000 0.0000 -63.9086 41.0411 49.8362 66.7891 -57.8631 -40.0430 -0.0000 -0.0000 17.4847 36.3761 26.4202 18.1471 -7.1250 0.0000 -0.0000 7.9063 61.4864 3.1842 0.0000 0.0000 0.0000 68.4752 -30.7275 42.1973 -49.6333 52.8465 -25.8816 0.0000 -0.0000 -10.1721 -28.6725 -13.7309 7.3959 7.1250 -0.0000 -0.0000 -1.1854 -45.5387 0.0158
